<?xml version="1.0" encoding="UTF-8"?>
<svg class="" width="512" height="512" enable-background="new 0 0 512 512" version="1.1" viewBox="0 0 28.931 28.932" xml:space="preserve" xmlns="http://www.w3.org/2000/svg">
<g xmlns="http://www.w3.org/2000/svg">
	<path class="" d="m28.344 25.518-6.114-6.115c1.486-2.067 2.303-4.537 2.303-7.137 0-3.275-1.275-6.355-3.594-8.672-2.314-2.316-5.396-3.594-8.673-3.594-3.276 0-6.357 1.275-8.673 3.594-2.316 2.315-3.592 5.396-3.592 8.672s1.275 6.356 3.592 8.674c2.316 2.316 5.396 3.594 8.673 3.594 2.599 0 5.067-0.813 7.136-2.303l6.114 6.115c0.392 0.391 0.902 0.586 1.414 0.586 0.513 0 1.024-0.195 1.414-0.586 0.781-0.782 0.781-2.047 0-2.828zm-21.922-7.407c-1.562-1.562-2.421-3.639-2.421-5.846s0.859-4.282 2.421-5.844c1.561-1.562 3.636-2.422 5.844-2.422s4.284 0.86 5.845 2.422c1.562 1.562 2.422 3.638 2.422 5.845s-0.859 4.283-2.422 5.846c-1.562 1.562-3.636 2.42-5.845 2.42s-4.285-0.86-5.844-2.421z" fill="#EBEDF4" style="" data-original="#000000"/>
</g>
</svg>
